# JANS Situationsmodell (lokal: Origin=Parzellen-Zentroid, Z=m ue.M.)
g VOL_VARIANTE_S
v -4.877 10.808 581.250
v -16.797 12.192 581.250
v -19.036 -7.088 581.250
v -7.116 -8.472 581.250
v 18.820 -11.483 581.250
v 20.407 2.185 581.250
v -5.529 5.196 581.250
v -4.877 10.808 583.830
v -16.797 12.192 583.830
v -19.036 -7.088 583.830
v -7.116 -8.472 583.830
v 18.820 -11.483 583.830
v 20.407 2.185 583.830
v -5.529 5.196 583.830
v -4.877 10.808 583.830
v -16.797 12.192 583.830
v -19.036 -7.088 583.830
v -7.116 -8.472 583.830
v 18.820 -11.483 583.830
v 20.407 2.185 583.830
v -5.529 5.196 583.830
v -4.877 10.808 593.300
v -16.797 12.192 593.300
v -19.036 -7.088 593.300
v -7.116 -8.472 593.300
v 18.820 -11.483 593.300
v 20.407 2.185 593.300
v -5.529 5.196 593.300
v -8.093 8.262 593.300
v -14.251 8.977 593.300
v -15.821 -4.542 593.300
v -6.782 -5.592 593.300
v 16.274 -8.268 593.300
v 17.192 -0.361 593.300
v -8.744 2.650 593.300
v -8.093 8.262 596.600
v -14.251 8.977 596.600
v -15.821 -4.542 596.600
v -6.782 -5.592 596.600
v 16.274 -8.268 596.600
v 17.192 -0.361 596.600
v -8.744 2.650 596.600
f 2 1 7
f 14 8 9
f 4 3 2
f 9 10 11
f 6 5 4
f 11 12 13
f 4 2 7
f 14 9 11
f 7 6 4
f 11 13 14
f 1 2 9 8
f 2 3 10 9
f 3 4 11 10
f 4 5 12 11
f 5 6 13 12
f 6 7 14 13
f 7 1 8 14
f 16 15 21
f 28 22 23
f 18 17 16
f 23 24 25
f 20 19 18
f 25 26 27
f 18 16 21
f 28 23 25
f 21 20 18
f 25 27 28
f 15 16 23 22
f 16 17 24 23
f 17 18 25 24
f 18 19 26 25
f 19 20 27 26
f 20 21 28 27
f 21 15 22 28
f 30 29 35
f 42 36 37
f 32 31 30
f 37 38 39
f 34 33 32
f 39 40 41
f 32 30 35
f 42 37 39
f 35 34 32
f 39 41 42
f 29 30 37 36
f 30 31 38 37
f 31 32 39 38
f 32 33 40 39
f 33 34 41 40
f 34 35 42 41
f 35 29 36 42
