# JANS Situationsmodell (lokal: Origin=Parzellen-Zentroid, Z=m ue.M.)
g SITU_BESTAND_PARZELLE
v 15.815 13.463 580.980
v 19.063 4.936 580.980
v 14.697 3.894 580.980
v 14.697 3.894 580.980
v 19.063 4.936 580.980
v 18.761 3.451 580.980
v 18.761 3.451 580.980
v 19.063 4.936 580.980
v 18.899 3.436 580.980
v 15.815 13.463 580.980
v 22.924 12.622 580.980
v 19.063 4.936 580.980
v 19.063 4.936 580.980
v 22.924 12.622 580.980
v 21.768 4.624 580.980
v 22.924 12.622 589.726
v 21.768 4.624 589.726
v 22.924 12.622 580.980
v 22.924 12.622 580.980
v 21.768 4.624 589.726
v 21.768 4.624 580.980
v 21.768 4.624 589.726
v 19.063 4.936 589.726
v 21.768 4.624 580.980
v 21.768 4.624 580.980
v 19.063 4.936 589.726
v 19.063 4.936 580.980
v 19.063 4.936 589.726
v 18.899 3.436 589.726
v 19.063 4.936 580.980
v 19.063 4.936 580.980
v 18.899 3.436 589.726
v 18.899 3.436 580.980
v 18.761 3.451 589.726
v 18.899 3.436 580.980
v 18.899 3.436 589.726
v 18.761 3.451 589.726
v 18.761 3.451 580.980
v 18.899 3.436 580.980
v 15.815 13.463 580.980
v 14.697 3.894 580.980
v 15.815 13.463 589.726
v 15.815 13.463 589.726
v 14.697 3.894 580.980
v 14.697 3.894 589.726
v 22.924 12.622 589.726
v 19.063 4.936 589.726
v 21.768 4.624 589.726
v 19.063 4.936 589.726
v 18.761 3.451 589.726
v 18.899 3.436 589.726
v 19.063 4.936 589.726
v 14.697 3.894 589.726
v 18.761 3.451 589.726
v 22.924 12.622 589.726
v 15.815 13.463 589.726
v 19.063 4.936 589.726
v 19.063 4.936 589.726
v 15.815 13.463 589.726
v 14.697 3.894 589.726
f 1 2 3
f 4 5 6
f 7 8 9
f 10 11 12
f 13 14 15
f 16 17 18
f 19 20 21
f 22 23 24
f 25 26 27
f 28 29 30
f 31 32 33
f 34 35 36
f 37 38 39
f 40 41 42
f 43 44 45
f 46 47 48
f 49 50 51
f 52 53 54
f 55 56 57
f 58 59 60
v 11.607 -7.528 580.980
v 17.585 -9.266 580.980
v 11.459 -8.553 580.980
v 11.607 -7.528 580.980
v 19.008 2.937 580.980
v 17.585 -9.266 580.980
v 19.008 2.937 580.980
v 18.761 3.451 580.980
v 19.023 3.115 580.980
v 19.023 3.115 580.980
v 18.761 3.451 580.980
v 19.045 3.384 580.980
v 11.607 -7.528 580.980
v 14.697 3.895 580.980
v 19.008 2.937 580.980
v 19.008 2.937 580.980
v 14.697 3.895 580.980
v 18.761 3.451 580.980
v 11.607 -7.528 580.980
v 14.677 3.897 580.980
v 14.697 3.895 580.980
v 11.607 -7.528 580.980
v 5.748 -2.874 580.980
v 14.677 3.897 580.980
v 14.677 3.897 580.980
v 5.748 -2.874 580.980
v 2.103 5.348 580.980
v 2.103 5.348 580.980
v 5.748 -2.874 580.980
v 1.189 -2.344 580.980
v 11.607 -7.528 580.980
v 5.390 -5.829 580.980
v 5.748 -2.874 580.980
v 11.607 -7.528 580.980
v 5.274 -6.798 580.980
v 5.390 -5.829 580.980
v 19.008 2.937 589.726
v 17.585 -9.266 589.726
v 19.008 2.937 580.980
v 19.008 2.937 580.980
v 17.585 -9.266 589.726
v 17.585 -9.266 580.980
v 19.023 3.115 589.726
v 19.008 2.937 589.726
v 19.023 3.115 580.980
v 19.023 3.115 580.980
v 19.008 2.937 589.726
v 19.008 2.937 580.980
v 17.585 -9.266 589.726
v 11.459 -8.553 589.726
v 17.585 -9.266 580.980
v 17.585 -9.266 580.980
v 11.459 -8.553 589.726
v 11.459 -8.553 580.980
v 11.459 -8.553 589.726
v 11.607 -7.528 589.726
v 11.459 -8.553 580.980
v 11.459 -8.553 580.980
v 11.607 -7.528 589.726
v 11.607 -7.528 580.980
v 11.607 -7.528 589.726
v 5.274 -6.798 589.726
v 11.607 -7.528 580.980
v 11.607 -7.528 580.980
v 5.274 -6.798 589.726
v 5.274 -6.798 580.980
v 5.748 -2.874 589.726
v 5.390 -5.829 587.276
v 5.274 -6.798 589.726
v 5.274 -6.798 589.726
v 5.390 -5.829 587.276
v 5.274 -6.798 580.980
v 5.274 -6.798 580.980
v 5.390 -5.829 587.276
v 5.390 -5.829 580.980
v 5.748 -2.874 589.726
v 5.748 -2.874 587.276
v 5.390 -5.829 587.276
v 1.189 -2.344 589.726
v 5.748 -2.874 587.276
v 5.748 -2.874 589.726
v 1.189 -2.344 589.726
v 1.189 -2.344 587.276
v 5.748 -2.874 587.276
v 2.103 5.348 589.726
v 14.677 3.897 589.726
v 2.103 5.348 580.980
v 2.103 5.348 580.980
v 14.677 3.897 589.726
v 14.677 3.897 580.980
v 14.697 3.895 589.726
v 14.697 3.895 580.980
v 14.677 3.897 589.726
v 14.677 3.897 589.726
v 14.697 3.895 580.980
v 14.677 3.897 580.980
v 19.045 3.384 580.980
v 18.761 3.451 580.980
v 19.045 3.384 589.726
v 19.045 3.384 589.726
v 18.761 3.451 580.980
v 18.761 3.451 589.726
v 19.045 3.384 589.726
v 19.023 3.115 589.726
v 19.045 3.384 580.980
v 19.045 3.384 580.980
v 19.023 3.115 589.726
v 19.023 3.115 580.980
v 0.839 -5.293 580.980
v 1.189 -2.344 580.980
v 5.390 -5.829 580.980
v 5.390 -5.829 580.980
v 1.189 -2.344 580.980
v 5.748 -2.874 580.980
v 0.839 -5.293 580.980
v 5.390 -5.829 580.980
v 0.839 -5.293 587.276
v 0.839 -5.293 587.276
v 5.390 -5.829 580.980
v 5.390 -5.829 587.276
v 11.607 -7.528 589.726
v 5.748 -2.874 589.726
v 5.274 -6.798 589.726
v 5.748 -2.874 589.726
v 2.103 5.348 589.726
v 1.189 -2.344 589.726
v 11.607 -7.528 589.726
v 14.677 3.897 589.726
v 5.748 -2.874 589.726
v 5.748 -2.874 589.726
v 14.677 3.897 589.726
v 2.103 5.348 589.726
v 11.607 -7.528 589.726
v 14.697 3.895 589.726
v 14.677 3.897 589.726
v 18.761 3.451 589.726
v 19.023 3.115 589.726
v 19.045 3.384 589.726
v 11.607 -7.528 589.726
v 19.008 2.937 589.726
v 14.697 3.895 589.726
v 14.697 3.895 589.726
v 19.008 2.937 589.726
v 18.761 3.451 589.726
v 18.761 3.451 589.726
v 19.008 2.937 589.726
v 19.023 3.115 589.726
v 11.607 -7.528 589.726
v 17.585 -9.266 589.726
v 19.008 2.937 589.726
v 11.607 -7.528 589.726
v 11.459 -8.553 589.726
v 17.585 -9.266 589.726
v 0.839 -5.293 587.276
v 5.390 -5.829 587.276
v 1.189 -2.344 587.276
v 1.189 -2.344 587.276
v 5.390 -5.829 587.276
v 5.748 -2.874 587.276
f 61 62 63
f 64 65 66
f 67 68 69
f 70 71 72
f 73 74 75
f 76 77 78
f 79 80 81
f 82 83 84
f 85 86 87
f 88 89 90
f 91 92 93
f 94 95 96
f 97 98 99
f 100 101 102
f 103 104 105
f 106 107 108
f 109 110 111
f 112 113 114
f 115 116 117
f 118 119 120
f 121 122 123
f 124 125 126
f 127 128 129
f 130 131 132
f 133 134 135
f 136 137 138
f 139 140 141
f 142 143 144
f 145 146 147
f 148 149 150
f 151 152 153
f 154 155 156
f 157 158 159
f 160 161 162
f 163 164 165
f 166 167 168
f 169 170 171
f 172 173 174
f 175 176 177
f 178 179 180
f 181 182 183
f 184 185 186
f 187 188 189
f 190 191 192
f 193 194 195
f 196 197 198
f 199 200 201
f 202 203 204
f 205 206 207
f 208 209 210
f 211 212 213
f 214 215 216
f 217 218 219
v -17.163 -4.248 580.980
v -3.489 -4.783 580.980
v -3.606 -5.783 580.980
v -17.163 -4.248 580.980
v -3.143 -1.834 580.980
v -3.489 -4.783 580.980
v -3.143 -1.834 580.980
v 2.103 5.348 580.980
v 1.189 -2.344 580.980
v -7.963 10.132 580.980
v -8.381 6.559 580.980
v -15.356 10.979 580.980
v -15.356 10.979 580.980
v -8.381 6.559 580.980
v -17.163 -4.248 580.980
v -17.163 -4.248 580.980
v -8.381 6.559 580.980
v -3.143 -1.834 580.980
v -3.143 -1.834 580.980
v -8.381 6.559 580.980
v 2.103 5.348 580.980
v -3.143 -1.834 589.726
v 1.189 -2.344 587.276
v 1.189 -2.344 589.726
v -3.143 -1.834 589.726
v -3.143 -1.834 587.276
v 1.189 -2.344 587.276
v -3.606 -5.783 589.726
v -3.488 -4.783 587.276
v -3.143 -1.834 589.726
v -3.143 -1.834 589.726
v -3.488 -4.783 587.276
v -3.143 -1.834 587.276
v -3.606 -5.783 589.726
v -3.606 -5.783 580.980
v -3.488 -4.783 587.276
v -3.488 -4.783 587.276
v -3.606 -5.783 580.980
v -3.489 -4.783 580.980
v -3.606 -5.783 589.726
v -17.163 -4.248 589.726
v -3.606 -5.783 580.980
v -3.606 -5.783 580.980
v -17.163 -4.248 589.726
v -17.163 -4.248 580.980
v -17.163 -4.248 589.726
v -15.356 10.979 589.726
v -17.163 -4.248 580.980
v -17.163 -4.248 580.980
v -15.356 10.979 589.726
v -15.356 10.979 580.980
v -15.356 10.979 589.726
v -7.963 10.132 589.726
v -15.356 10.979 580.980
v -15.356 10.979 580.980
v -7.963 10.132 589.726
v -7.963 10.132 580.980
v -7.963 10.132 589.726
v -8.381 6.559 589.726
v -7.963 10.132 580.980
v -7.963 10.132 580.980
v -8.381 6.559 589.726
v -8.381 6.559 580.980
v -8.381 6.559 589.726
v 2.103 5.348 589.726
v -8.381 6.559 580.980
v -8.381 6.559 580.980
v 2.103 5.348 589.726
v 2.103 5.348 580.980
v -3.488 -4.783 580.980
v -3.143 -1.834 580.980
v 0.839 -5.293 580.980
v 0.839 -5.293 580.980
v -3.143 -1.834 580.980
v 1.189 -2.344 580.980
v -3.488 -4.783 580.980
v 0.839 -5.293 580.980
v -3.488 -4.783 587.276
v -3.488 -4.783 587.276
v 0.839 -5.293 580.980
v 0.839 -5.293 587.276
v -8.381 6.559 589.726
v -3.143 -1.834 589.726
v 2.103 5.348 589.726
v 2.103 5.348 589.726
v -3.143 -1.834 589.726
v 1.189 -2.344 589.726
v -8.381 6.559 589.726
v -17.163 -4.248 589.726
v -3.143 -1.834 589.726
v -3.143 -1.834 589.726
v -17.163 -4.248 589.726
v -3.606 -5.783 589.726
v -8.381 6.559 589.726
v -15.356 10.979 589.726
v -17.163 -4.248 589.726
v -8.381 6.559 589.726
v -7.963 10.132 589.726
v -15.356 10.979 589.726
v 0.839 -5.293 587.276
v -3.143 -1.834 587.276
v -3.488 -4.783 587.276
v 0.839 -5.293 587.276
v 1.189 -2.344 587.276
v -3.143 -1.834 587.276
f 220 221 222
f 223 224 225
f 226 227 228
f 229 230 231
f 232 233 234
f 235 236 237
f 238 239 240
f 241 242 243
f 244 245 246
f 247 248 249
f 250 251 252
f 253 254 255
f 256 257 258
f 259 260 261
f 262 263 264
f 265 266 267
f 268 269 270
f 271 272 273
f 274 275 276
f 277 278 279
f 280 281 282
f 283 284 285
f 286 287 288
f 289 290 291
f 292 293 294
f 295 296 297
f 298 299 300
f 301 302 303
f 304 305 306
f 307 308 309
f 310 311 312
f 313 314 315
f 316 317 318
f 319 320 321
f 322 323 324
